# xmcd
#
# Track frame offsets: 
#        150
#        28526
#        59707
#        79948
#        96120
#        130320
#        168590
#        186095
#        200720
#        223586
#        249048
#        266298
#
# Disc length: 3811 seconds
#
# Revision: 0
# Processed by: cddbd v1.5.2PL0 Copyright (c) Steve Scherf et al.
# Submitted via: ExactAudioCopy v1.1
#
DISCID=a90ee10c
DTITLE=XII Bies Czad Blues - XII Bies Czad Blues 2017
DYEAR=2018
DGENRE=Blues
TTITLE0=Hot Tamales - Buy Myself Some Freedom
TTITLE1=Hot Tamales - Spoonful
TTITLE2=Bluesfera - Stare Buty
TTITLE3=Bluesfera - Harley
TTITLE4=Chango - Boyhood
TTITLE5=Chango and Budyń - Uśmiech się
TTITLE6=Manfredi and Johnson - To Old To Die Young
TTITLE7=Manfredi and Johnson - You Gotta Be Dreaming
TTITLE8=Polska Grupa Bluesowa - NIe Zejdę z Mojej Drogi
TTITLE9=Polska Grupa Bluesowa - Hey Blues
TTITLE10=Makar and Children of The Corn - Fast Death
TTITLE11=Makar and Children of The Corn - Good Day
EXTD=
EXTT0=
EXTT1=
EXTT2=
EXTT3=
EXTT4=
EXTT5=
EXTT6=
EXTT7=
EXTT8=
EXTT9=
EXTT10=
EXTT11=
PLAYORDER=
